<svg xmlns="http://www.w3.org/2000/svg" viewBox="0 0 63.45 58.15"><defs><style>.cls-1{fill:#369;}</style></defs><g id="Layer_2" data-name="Layer 2"><g id="Layer_1-2" data-name="Layer 1"><path class="cls-1" d="M60.84,10.59H11.23L10.5,2.37A2.62,2.62,0,0,0,7.9,0H2.61a2.61,2.61,0,1,0,0,5.21H5.52C7.11,22.94,3-22.88,8.51,38.6a10,10,0,0,0,3.76,6.79,7.9,7.9,0,1,0,13.65,2.18H40.18a7.9,7.9,0,1,0,7.43-5.22H18.51a4.83,4.83,0,0,1-4.45-2.93L55.7,37a2.6,2.6,0,0,0,2.38-2l5.29-21.17a2.61,2.61,0,0,0-2.53-3.24ZM18.49,52.94a2.69,2.69,0,1,1,2.69-2.69,2.69,2.69,0,0,1-2.69,2.69Zm29.12,0a2.69,2.69,0,1,1,2.69-2.69,2.68,2.68,0,0,1-2.69,2.69Zm5.87-21.06L13.36,34.24,11.7,15.8H57.5Z"/></g></g></svg>