<?xml version="1.0" encoding="utf-8"?>
<!-- Generator: Adobe Illustrator 25.0.1, SVG Export Plug-In . SVG Version: 6.00 Build 0)  -->
<svg version="1.1" id="Layer_1" xmlns="http://www.w3.org/2000/svg" xmlns:xlink="http://www.w3.org/1999/xlink" x="0px" y="0px"
	 viewBox="0 0 643.5 117" style="enable-background:new 0 0 643.5 117;" xml:space="preserve">
<style type="text/css">
	.st0{fill:#FDFEFF;}
	.st1{fill:#0071BC;}
	.st2{fill:url(#SVGID_1_);}
	.st3{fill:url(#SVGID_2_);}
	.st4{fill:url(#SVGID_3_);}
	.st5{fill:url(#SVGID_4_);}
	.st6{fill:url(#SVGID_5_);}
	.st7{fill:#F2F2F2;}
	.st8{fill:#34385B;}
</style>
<path class="st0" d="M136.4,104.2l3.6-3.4v-7.7h4.5v8.5l-3.6,3.4l3.6,3.4v8.5H140v-7.7l-1.8-1.7l-1.8,1.7v7.7H132V93.1h4.5V104.2z"
	/>
<path class="st0" d="M160.6,113.6L157,117h-9V96.5l3.6-3.4h9V113.6z M156.1,96.6h-3.6v17h3.6L156.1,96.6z"/>
<path class="st0" d="M171.4,96.5h-2.7V117h-4.5V93.1h15.2l3.6,3.4V117h-4.5V96.5h-2.7V117h-4.4V96.5z"/>
<path class="st0" d="M186.6,93.1h12.5V117h-4.5V96.5H191V117h-4.5V93.1z"/>
<path class="st0" d="M207.1,101.7h4.5l3.6,3.4V117h-9l-3.6-3.4V93.1h4.5V101.7z M207.1,113.6h3.6v-8.5h-3.6V113.6z"/>
<path class="st0" d="M225.9,105.9h-2.6V117h-4.5V93.1h4.5v9.4h2.6v-6l3.6-3.4h9v20.5l-3.6,3.4h-9L225.9,105.9z M234,96.5h-3.6v17
	h3.6V96.5z"/>
<path class="st0" d="M246.1,96.5h-4v-3.4h12.5v3.4h-4V117h-4.5L246.1,96.5z"/>
<path class="st0" d="M262.6,106.8v6.8h3.6v-3.4h4.5v3.4l-3.6,3.4h-9V96.5l3.6-3.4h9v6.8h-4.5v-3.4h-3.5v6.8h6.3l-3.6,3.4H262.6z"/>
<path class="st0" d="M286.8,102.5l-3.6,3.4h-4.5V117h-4.5V96.5l3.6-3.4h9L286.8,102.5z M282.3,96.5h-3.6v6h3.6V96.5z"/>
<path class="st0" d="M290.4,93.1h4.5v9.4h3.6v-9.4h4.5V117h-4.5v-11.1h-3.6V117h-4.5V93.1z"/>
<path class="st0" d="M311,109.3v7.7h-4.5V93.1h9l3.6,3.4V117h-4.5v-7.7H311z M314.6,105.9v-9.4H311v9.4L314.6,105.9z"/>
<path class="st0" d="M335.1,117h-4.5v-10.2h-3.6V117h-4.5v-10.2l1.8-1.7l-1.8-1.7v-6.8l3.6-3.4h9V117z M327.1,96.5v6.8h3.6v-6.8
	H327.1z"/>
<path class="st0" d="M360,110.2h4.5v3.4l-3.6,3.4h-9V96.5l3.6-3.4h9v6.8H360v-3.4h-3.6v17h3.6L360,110.2z"/>
<path class="st0" d="M372.5,106.8v6.8h3.6v-3.4h4.5v3.4L377,117h-9V96.5l3.6-3.4h9v6.8h-4.5v-3.4h-3.6v6.8h6.3l-3.6,3.4H372.5z"/>
<path class="st0" d="M396.7,102.5l-3.6,3.4h-4.5V117h-4.5V96.5l3.6-3.4h9L396.7,102.5z M392.2,96.5h-3.6v6h3.5L392.2,96.5z"/>
<path class="st0" d="M400.2,117V96.5l3.6-3.4h9v9.4l-1.8,1.7l1.8,1.7v7.7l-3.6,3.4H400.2z M408.3,96.5h-3.6v6h3.6V96.5z
	 M404.7,113.5h3.6v-7.6h-3.6V113.5z"/>
<path class="st0" d="M428.9,117h-4.5v-11.1l-1.8,1.7l-1.8,1.7v7.7h-4.5V93.1h4.5v11.1l3.6-3.4v-7.7h4.5V117z"/>
<path class="st0" d="M440.5,110.2h4.5v3.4l-3.6,3.4h-9V96.5l3.6-3.4h9v6.8h-4.5v-3.4H437v17h3.6L440.5,110.2z"/>
<path class="st0" d="M448.6,93.1h4.5v9.4h3.6v-9.4h4.5V117h-4.5v-11.1h-3.6V117h-4.5L448.6,93.1z"/>
<path class="st0" d="M469.1,109.3v7.7h-4.5V93.1h9l3.6,3.4V117h-4.5v-7.7H469.1z M472.7,105.9v-9.4h-3.6v9.4L472.7,105.9z"/>
<path class="st0" d="M493.3,117h-4.5v-10.2h-3.6V117h-4.5v-10.2l1.8-1.7l-1.8-1.7v-6.8l3.6-3.4h9L493.3,117z M485.3,96.5v6.8h3.6
	v-6.8H485.3z"/>
<path class="st0" d="M514.6,104.2l3.6-3.4v-7.7h4.5v8.5l-3.6,3.4l3.6,3.4v8.5h-4.5v-7.7l-1.8-1.7l-1.8,1.7v7.7h-4.5V93.1h4.5
	L514.6,104.2z"/>
<path class="st0" d="M538.7,113.6l-3.6,3.4h-9V96.5l3.6-3.4h9V113.6z M534.3,96.6h-3.6v17h3.6V96.6z"/>
<path class="st0" d="M549.5,96.5h-2.7V117h-4.5V93.1h15.2l3.6,3.4V117h-4.5V96.5H554V117h-4.5V96.5z"/>
<path class="st0" d="M564.7,93.1h12.5V117h-4.5V96.5h-3.6V117h-4.5L564.7,93.1z"/>
<path class="st0" d="M585.3,109.3v7.7h-4.5V93.1h9l3.6,3.4V117h-4.5v-7.7H585.3z M588.9,105.9v-9.4h-3.6v9.4L588.9,105.9z"/>
<path class="st0" d="M596.9,93.1h4.5v9.4h3.6v-9.4h4.5V117H605v-11.1h-3.6V117h-4.5V93.1z"/>
<path class="st0" d="M625.6,117h-4.5v-11.1l-1.8,1.7l-1.8,1.7v7.7H613V93.1h4.5v11.1l3.6-3.4v-7.7h4.5L625.6,117z"/>
<path class="st0" d="M641.7,117h-4.5v-10.2h-3.6V117h-4.4v-10.2l1.8-1.7l-1.8-1.7v-6.8l3.6-3.4h9L641.7,117z M633.6,96.5v6.8h3.5
	v-6.8H633.6z"/>
<path class="st1" d="M102.3,0H88.2c-4.8,0-8.6,3.9-8.6,8.7c0,0,0,0,0,0V23c0,4.8,3.8,8.7,8.6,8.7c0,0,0,0,0,0h14.1
	c4.8,0,8.6-3.9,8.6-8.7c0,0,0,0,0,0V8.7C110.9,3.9,107.1,0,102.3,0z"/>
<path class="st1" d="M25.2,82.9H11c-4.8,0-8.6,3.9-8.6,8.7c0,0,0,0,0,0v14.3c0,4.8,3.8,8.7,8.6,8.7c0,0,0,0,0,0h14.1
	c4.8,0,8.6-3.9,8.6-8.7c0,0,0,0,0,0V91.5C33.8,86.8,29.9,82.9,25.2,82.9z"/>
<path class="st1" d="M63.7,82.9H51.8c-10-0.1-18.1-8.2-18.1-18.3V50.1c0-4.8-3.8-8.7-8.6-8.7c0,0,0,0,0,0H11c-4.8,0-8.6,3.9-8.6,8.7
	v14.3c0,4.8,3.8,8.7,8.6,8.7h11.9c10,0.1,18.1,8.2,18.1,18.3v14.5c0,4.8,3.8,8.7,8.6,8.7h14.1c4.8,0,8.6-3.9,8.6-8.7c0,0,0,0,0,0
	V91.5C72.3,86.8,68.5,82.9,63.7,82.9z"/>
<path class="st1" d="M102.3,41.4H90.4c-10-0.1-18.1-8.2-18.1-18.3V8.7c0-4.8-3.8-8.7-8.6-8.7c0,0,0,0,0,0H49.6C44.8,0,41,3.9,41,8.7
	V23c0,4.8,3.8,8.7,8.6,8.7h11.9c10,0.1,18.1,8.2,18.1,18.3v14.4c0,4.8,3.8,8.7,8.6,8.7c0,0,0,0,0,0h14.1c4.8,0,8.6-3.9,8.6-8.7V50.1
	C110.9,45.3,107.1,41.4,102.3,41.4z"/>
<path class="st1" d="M102.3,82.9H90.4c-10-0.1-18.1-8.2-18.1-18.3V50.1c0-4.8-3.8-8.7-8.6-8.7c0,0,0,0,0,0H51.8
	c-10-0.1-18.1-8.2-18.1-18.3V8.7c0-4.8-3.8-8.7-8.6-8.7c0,0,0,0,0,0H11C6.2,0,2.4,3.9,2.4,8.7V23c0,4.8,3.8,8.7,8.6,8.7h11.9
	c10,0.1,18.1,8.2,18.1,18.3v14.4c0,2.3,0.9,4.5,2.5,6.1c1.6,1.6,3.8,2.6,6.1,2.6h11.9c10,0.1,18.1,8.2,18.1,18.3v14.5
	c0,4.8,3.8,8.7,8.6,8.7c0,0,0,0,0,0h14.1c4.8,0,8.6-3.9,8.6-8.7V91.5C110.9,86.8,107.1,82.9,102.3,82.9z"/>
<linearGradient id="SVGID_1_" gradientUnits="userSpaceOnUse" x1="203.424" y1="-62.0835" x2="148.864" y2="-112.4435" gradientTransform="matrix(1 0 0 -1 -110.85 -44.11)">
	<stop  offset="0" style="stop-color:#1C6293"/>
	<stop  offset="1" style="stop-color:#2D2E4D"/>
</linearGradient>
<path class="st2" d="M99.9,1.9H85.8c-4.8,0-8.6,3.9-8.6,8.7c0,0,0,0,0,0v14.3c0,4.8,3.8,8.7,8.6,8.7c0,0,0,0,0,0h14.1
	c4.8,0,8.6-3.9,8.6-8.7V10.6C108.5,5.8,104.7,1.9,99.9,1.9C99.9,1.9,99.9,1.9,99.9,1.9z"/>
<linearGradient id="SVGID_2_" gradientUnits="userSpaceOnUse" x1="209.2082" y1="-68.3889" x2="154.6382" y2="-118.7489" gradientTransform="matrix(1 0 0 -1 -110.85 -44.11)">
	<stop  offset="0" style="stop-color:#1C6293"/>
	<stop  offset="1" style="stop-color:#2D2E4D"/>
</linearGradient>
<path class="st3" d="M22.7,84.8H8.6c-4.8,0-8.6,3.9-8.6,8.7c0,0,0,0,0,0v14.3c0,4.8,3.8,8.7,8.6,8.7c0,0,0,0,0,0h14.1
	c4.8,0,8.6-3.9,8.6-8.7c0,0,0,0,0,0V93.4C31.4,88.7,27.5,84.8,22.7,84.8C22.7,84.8,22.7,84.8,22.7,84.8z"/>
<linearGradient id="SVGID_3_" gradientUnits="userSpaceOnUse" x1="207.2692" y1="-67.2491" x2="153.1392" y2="-117.2191" gradientTransform="matrix(1 0 0 -1 -110.85 -44.11)">
	<stop  offset="0" style="stop-color:#1C6293"/>
	<stop  offset="1" style="stop-color:#2D2E4D"/>
</linearGradient>
<path class="st4" d="M61.3,84.8H49.4c-10-0.1-18.1-8.2-18.1-18.3V52c0-4.8-3.8-8.7-8.6-8.7c0,0,0,0,0,0H8.6C3.8,43.4,0,47.3,0,52
	v14.3C0,71.1,3.8,75,8.6,75c0,0,0,0,0,0h11.9c10,0.1,18.1,8.2,18.1,18.3v14.4c0,4.8,3.8,8.7,8.6,8.7c0,0,0,0,0,0h14.1
	c4.8,0,8.6-3.9,8.6-8.7V93.4C69.9,88.7,66.1,84.8,61.3,84.8z"/>
<linearGradient id="SVGID_4_" gradientUnits="userSpaceOnUse" x1="204.7083" y1="-63.8082" x2="150.5683" y2="-113.7782" gradientTransform="matrix(1 0 0 -1 -110.85 -44.11)">
	<stop  offset="0" style="stop-color:#1C6293"/>
	<stop  offset="1" style="stop-color:#2D2E4D"/>
</linearGradient>
<path class="st5" d="M99.9,43.3H88c-10-0.1-18.1-8.2-18.1-18.3V10.6c0-4.8-3.8-8.7-8.6-8.7H47.2c-4.8,0-8.6,3.9-8.6,8.7c0,0,0,0,0,0
	v14.3c0,4.8,3.8,8.7,8.6,8.7c0,0,0,0,0,0H59c10,0,18.2,8.2,18.1,18.3c0,0,0,0,0,0v14.4c0,4.8,3.8,8.7,8.6,8.7c0,0,0,0,0,0h14.1
	c4.8,0,8.6-3.9,8.6-8.7c0,0,0,0,0,0V52C108.5,47.3,104.7,43.4,99.9,43.3z"/>
<linearGradient id="SVGID_5_" gradientUnits="userSpaceOnUse" x1="205.6786" y1="-65.8185" x2="151.9486" y2="-115.4085" gradientTransform="matrix(1 0 0 -1 -110.85 -44.11)">
	<stop  offset="0" style="stop-color:#1C6293"/>
	<stop  offset="1" style="stop-color:#2D2E4D"/>
</linearGradient>
<path class="st6" d="M99.9,84.8H88c-10-0.1-18.1-8.2-18.1-18.3V52c0-4.8-3.8-8.7-8.6-8.7H49.4c-10-0.1-18.1-8.2-18.1-18.3V10.6
	c0-4.8-3.8-8.7-8.6-8.7c0,0,0,0,0,0H8.6C3.8,1.9,0,5.8,0,10.6v14.3c0,4.8,3.8,8.7,8.6,8.7h11.9c10,0,18.1,8.2,18.1,18.3c0,0,0,0,0,0
	v14.4c0,1.2,0.2,2.3,0.7,3.4c0.4,1,1.1,2,1.9,2.8c1.6,1.6,3.8,2.6,6.1,2.6h11.9c10,0.1,18.1,8.2,18.1,18.3v14.4
	c0,4.8,3.8,8.7,8.6,8.7c0,0,0,0,0,0h14.1c4.8,0,8.6-3.9,8.6-8.7V93.4C108.5,88.7,104.7,84.8,99.9,84.8z"/>
<g id="ะบัะบ">
	<path class="st7" d="M25.4,13.8V8.9h-9.8v7.4h-2.5V8.9H5.8v17.3h7.3v-4.9H18v4.9h7.3v-4.9c0-2.7-2.4-5.9-4.9-5.9l0,0v-1.5
		L25.4,13.8z"/>
	<path class="st7" d="M102.5,96.7v-4.9h-9.8v7.4h-2.4v-7.4H83V109h7.3v-4.9h4.9v4.9h7.3v-4.9c0-2.7-2.4-5.9-4.9-5.9v-1.5H102.5z"/>
	<path class="st7" d="M57.6,61.2v3h-5.9v-9.9h5.9v2h6.8v-0.8c0-2.8-2.3-5.2-5.1-5.2c0,0,0,0,0,0H50c-2.8,0-5.1,2.3-5.1,5.2v6.9
		c0,2.8,2.3,5.2,5.1,5.2h9.3c2.8,0,5.1-2.3,5.1-5.2c0,0,0,0,0,0v-1.2L57.6,61.2z"/>
</g>
<polygon class="st8" points="175.2,1 129.9,1 129.9,13.7 132.4,13.7 132.4,84.9 155,84.9 155,18.8 175.2,18.8 175.2,84.9 
	197.8,84.9 197.8,13.7 197.8,1 "/>
<path class="st8" d="M331.8,1H293c-8.1,0-14.6,6.6-14.6,14.7c0,0,0,0,0,0v69.2h22.7V69.7h-12.6V46.8H286V36.6h15.1V24.2
	c0-3,2.4-5.4,5.4-5.4h14.5c3,0,5.4,2.4,5.4,5.4v14.6c0,3-2.4,5.4-5.3,5.4c0,0,0,0,0,0h-27.4V62h38.3c8.1,0,14.6-6.6,14.6-14.7
	c0,0,0,0,0,0V15.7C346.4,7.6,339.9,1,331.8,1C331.8,1,331.8,1,331.8,1z"/>
<path class="st8" d="M628.9,1H590c-8.1,0-14.6,6.6-14.6,14.7c0,0,0,0,0,0v69.2h22.7V69.7h-12.6V46.8H583V36.6h15.1V24.2
	c0-3,2.4-5.4,5.3-5.4H618c3,0,5.4,2.4,5.4,5.4v14.6c0,3-2.4,5.4-5.3,5.4c0,0,0,0,0,0h-27.4V62h38.3c8.1,0,14.6-6.6,14.6-14.7
	c0,0,0,0,0,0V15.7C643.5,7.6,637,1,628.9,1C628.9,1,628.9,1,628.9,1z"/>
<path class="st8" d="M270.9,16.7v-2.3C271,7.1,265.2,1.1,258,1c0,0,0,0,0,0h-42.2c-7.3,0.1-13,6.1-12.9,13.4c0,0,0,0,0,0V22h2.5v63
	H228V58.7h-12.6v2.6h-2.5V24.6H223V22h0.1c0.2-1.5,1.4-2.6,2.8-2.6h19.4c1.5,0,2.7,1.2,2.8,2.6h2.6v10.5H218v18.4h32.7v23.6h2.5
	v10.5h20.1V16.7H270.9z"/>
<polygon class="st8" points="353.9,1 353.9,16.3 353.9,18.8 353.9,21.3 366.5,21.3 366.5,18.8 376.6,18.8 376.6,84.9 399.3,84.9 
	399.3,18.8 421.9,18.8 421.9,1 "/>
<polygon class="st8" points="472.3,1 472.3,34.1 447.1,34.1 447.1,1 426.9,1 426.9,84.9 447.1,84.9 447.1,49.3 472.3,49.3 
	472.3,84.9 492.4,84.9 492.4,1 "/>
<path class="st8" d="M532.1,18.8h38.4V1h-54.8c-7.3,0-13.2,6-13.2,13.3v57.3c0,7.3,5.9,13.3,13.2,13.3c0,0,0,0,0,0h54.8V67.1h-38.4
	c-4.5,0-8.4-3.2-9.3-7.6H510V26.4h12.8C523.7,22,527.6,18.8,532.1,18.8z"/>
<rect x="517.6" y="34.1" class="st8" width="52.9" height="17.8"/>
</svg>
