<svg id="Layer_1" data-name="Layer 1" xmlns="http://www.w3.org/2000/svg" xmlns:xlink="http://www.w3.org/1999/xlink" viewBox="0 0 643.46 116.98"><defs><style>.cls-1{fill:#1c6293;}.cls-2{fill:#0071bc;}.cls-3{fill:url(#linear-gradient);}.cls-4{fill:url(#linear-gradient-2);}.cls-5{fill:url(#linear-gradient-3);}.cls-6{fill:url(#linear-gradient-4);}.cls-7{fill:url(#linear-gradient-5);}.cls-8{fill:#f2f2f2;}.cls-9{fill:#34385b;}</style><linearGradient id="linear-gradient" x1="203.43" y1="180.09" x2="148.87" y2="230.45" gradientUnits="userSpaceOnUse"><stop offset="0" stop-color="#1c6293"/><stop offset="1" stop-color="#2d2e4d"/></linearGradient><linearGradient id="linear-gradient-2" x1="209.2" y1="186.38" x2="154.63" y2="236.74" xlink:href="#linear-gradient"/><linearGradient id="linear-gradient-3" x1="207.27" y1="185.25" x2="153.14" y2="235.22" xlink:href="#linear-gradient"/><linearGradient id="linear-gradient-4" x1="204.71" y1="181.81" x2="150.57" y2="231.78" xlink:href="#linear-gradient"/><linearGradient id="linear-gradient-5" x1="205.68" y1="183.82" x2="151.95" y2="233.41" xlink:href="#linear-gradient"/></defs><path class="cls-1" d="M247.29,266.31l3.58-3.4v-7.67h4.47v8.52l-3.58,3.41,3.58,3.4v8.52h-4.47v-7.66l-1.79-1.71-1.79,1.71v7.66h-4.48V255.24h4.48Z" transform="translate(-110.85 -162.11)"/><path class="cls-1" d="M271.46,275.69l-3.58,3.4h-9V258.65l3.58-3.41h9Zm-4.48-17H263.4v17H267Z" transform="translate(-110.85 -162.11)"/><path class="cls-1" d="M282.2,258.65h-2.69v20.44H275V255.24h15.21l3.58,3.41v20.44h-4.47V258.65h-2.69v20.44H282.2Z" transform="translate(-110.85 -162.11)"/><path class="cls-1" d="M297.41,255.24h12.53v23.85h-4.47V258.65h-3.58v20.44h-4.48Z" transform="translate(-110.85 -162.11)"/><path class="cls-1" d="M318,263.76h4.48l3.58,3.41v11.92h-8.95l-3.59-3.4V255.24H318Zm0,11.93h3.58v-8.52H318Z" transform="translate(-110.85 -162.11)"/><path class="cls-1" d="M336.76,268h-2.65v11.07h-4.47V255.24h4.47v9.37h2.65v-6l3.58-3.41h9v20.45l-3.58,3.4h-8.95Zm8.06-9.37h-3.58v17h3.58Z" transform="translate(-110.85 -162.11)"/><path class="cls-1" d="M356.94,258.65h-4v-3.41h12.53v3.41h-4v20.44h-4.47Z" transform="translate(-110.85 -162.11)"/><path class="cls-1" d="M373.5,268.87v6.82h3.58v-3.41h4.47v3.41l-3.58,3.4h-9V258.65l3.58-3.41h8.95v6.81h-4.47v-3.4H373.5v6.81h6.26l-3.58,3.41Z" transform="translate(-110.85 -162.11)"/><path class="cls-1" d="M397.66,264.61,394.08,268h-4.47v11.07h-4.48V258.65l3.58-3.41h9Zm-4.47-6h-3.58v6h3.58Z" transform="translate(-110.85 -162.11)"/><path class="cls-1" d="M401.24,255.24h4.48v9.37h3.58v-9.37h4.48v23.85H409.3V268h-3.58v11.07h-4.48Z" transform="translate(-110.85 -162.11)"/><path class="cls-1" d="M421.83,271.43v7.66h-4.47V255.24h8.95l3.58,3.41v20.44h-4.48v-7.66Zm3.58-3.41v-9.37h-3.58V268Z" transform="translate(-110.85 -162.11)"/><path class="cls-1" d="M446,279.09h-4.48V268.87h-3.58v10.22h-4.47V268.87l1.79-1.7-1.79-1.71v-6.81l3.58-3.41H446Zm-8.06-20.44v6.81h3.58v-6.81Z" transform="translate(-110.85 -162.11)"/><path class="cls-1" d="M470.81,272.28h4.48v3.41l-3.58,3.4h-8.95V258.65l3.58-3.41h9v6.81h-4.48v-3.4h-3.58v17h3.58Z" transform="translate(-110.85 -162.11)"/><path class="cls-1" d="M483.34,268.87v6.82h3.58v-3.41h4.48v3.41l-3.58,3.4h-8.95V258.65l3.58-3.41h8.95v6.81h-4.48v-3.4h-3.58v6.81h6.27L486,268.87Z" transform="translate(-110.85 -162.11)"/><path class="cls-1" d="M507.51,264.61,503.93,268h-4.47v11.07H495V258.65l3.58-3.41h8.95Zm-4.47-6h-3.58v6H503Z" transform="translate(-110.85 -162.11)"/><path class="cls-1" d="M511.09,279.09V258.65l3.58-3.41h9v9.37l-1.79,1.7,1.79,1.71v7.67l-3.58,3.4Zm8.06-20.44h-3.58v6h3.58Zm-3.58,17h3.58V268h-3.58Z" transform="translate(-110.85 -162.11)"/><path class="cls-1" d="M539.74,279.09h-4.48V268l-1.79,1.7-1.79,1.71v7.66H527.2V255.24h4.48v11.07l3.58-3.4v-7.67h4.48Z" transform="translate(-110.85 -162.11)"/><path class="cls-1" d="M551.37,272.28h4.48v3.41l-3.58,3.4h-8.95V258.65l3.58-3.41h9v6.81h-4.48v-3.4h-3.58v17h3.58Z" transform="translate(-110.85 -162.11)"/><path class="cls-1" d="M559.43,255.24h4.47v9.37h3.58v-9.37H572v23.85h-4.48V268H563.9v11.07h-4.47Z" transform="translate(-110.85 -162.11)"/><path class="cls-1" d="M580,271.43v7.66h-4.47V255.24h9l3.58,3.41v20.44h-4.48v-7.66Zm3.58-3.41v-9.37H580V268Z" transform="translate(-110.85 -162.11)"/><path class="cls-1" d="M604.18,279.09h-4.47V268.87h-3.58v10.22h-4.48V268.87l1.79-1.7-1.79-1.71v-6.81l3.58-3.41h8.95Zm-8-20.44v6.81h3.58v-6.81Z" transform="translate(-110.85 -162.11)"/><path class="cls-1" d="M625.41,266.31l3.58-3.4v-7.67h4.48v8.52l-3.58,3.41,3.58,3.4v8.52H629v-7.66l-1.79-1.71-1.79,1.71v7.66h-4.47V255.24h4.47Z" transform="translate(-110.85 -162.11)"/><path class="cls-1" d="M649.58,275.69l-3.58,3.4h-9V258.65l3.58-3.41h9Zm-4.47-17h-3.58v17h3.58Z" transform="translate(-110.85 -162.11)"/><path class="cls-1" d="M660.32,258.65h-2.68v20.44h-4.48V255.24h15.22l3.58,3.41v20.44h-4.48V258.65H664.8v20.44h-4.48Z" transform="translate(-110.85 -162.11)"/><path class="cls-1" d="M675.54,255.24h12.53v23.85h-4.48V258.65H680v20.44h-4.47Z" transform="translate(-110.85 -162.11)"/><path class="cls-1" d="M696.13,271.43v7.66h-4.48V255.24h9l3.58,3.41v20.44h-4.47v-7.66Zm3.58-3.41v-9.37h-3.58V268Z" transform="translate(-110.85 -162.11)"/><path class="cls-1" d="M707.76,255.24h4.48v9.37h3.58v-9.37h4.47v23.85h-4.47V268h-3.58v11.07h-4.48Z" transform="translate(-110.85 -162.11)"/><path class="cls-1" d="M736.41,279.09h-4.48V268l-1.79,1.7-1.79,1.71v7.66h-4.48V255.24h4.48v11.07l3.58-3.4v-7.67h4.48Z" transform="translate(-110.85 -162.11)"/><path class="cls-1" d="M752.52,279.09H748V268.87h-3.58v10.22H740V268.87l1.79-1.7L740,265.46v-6.81l3.58-3.41h8.95Zm-8.06-20.44v6.81H748v-6.81Z" transform="translate(-110.85 -162.11)"/><path class="cls-2" d="M213.16,162.11H199a8.65,8.65,0,0,0-8.6,8.7v14.28a8.64,8.64,0,0,0,8.6,8.69h14.14a8.64,8.64,0,0,0,8.6-8.69V170.81A8.65,8.65,0,0,0,213.16,162.11Z" transform="translate(-110.85 -162.11)"/><path class="cls-2" d="M136,245H121.87a8.65,8.65,0,0,0-8.61,8.69v14.28a8.65,8.65,0,0,0,8.61,8.7H136a8.65,8.65,0,0,0,8.6-8.7V253.64A8.64,8.64,0,0,0,136,245Z" transform="translate(-110.85 -162.11)"/><path class="cls-2" d="M174.58,245H162.69a18.2,18.2,0,0,1-18.09-18.28V212.23a8.65,8.65,0,0,0-8.6-8.7H121.87a8.66,8.66,0,0,0-8.61,8.7V226.5a8.66,8.66,0,0,0,8.61,8.7h11.88a18.19,18.19,0,0,1,18.09,18.27v14.45a8.66,8.66,0,0,0,8.61,8.7h14.13a8.65,8.65,0,0,0,8.6-8.7V253.64A8.64,8.64,0,0,0,174.58,245Z" transform="translate(-110.85 -162.11)"/><path class="cls-2" d="M213.15,203.53H201.27a18.19,18.19,0,0,1-18.09-18.27V170.81a8.65,8.65,0,0,0-8.6-8.7H160.45a8.66,8.66,0,0,0-8.61,8.7v14.27a8.66,8.66,0,0,0,8.61,8.7h11.88a18.19,18.19,0,0,1,18.09,18.28V226.5a8.65,8.65,0,0,0,8.6,8.7h14.13a8.66,8.66,0,0,0,8.61-8.7V212.23A8.66,8.66,0,0,0,213.15,203.53Z" transform="translate(-110.85 -162.11)"/><path class="cls-2" d="M213.15,245H201.27a18.19,18.19,0,0,1-18.09-18.28V212.23a8.65,8.65,0,0,0-8.6-8.7H162.69a18.19,18.19,0,0,1-18.09-18.27V170.81a8.65,8.65,0,0,0-8.6-8.7H121.87a8.66,8.66,0,0,0-8.61,8.7v14.27a8.66,8.66,0,0,0,8.61,8.7h11.88a18.19,18.19,0,0,1,18.09,18.28V226.5a8.63,8.63,0,0,0,2.52,6.15,8.52,8.52,0,0,0,6.09,2.55h11.88a18.19,18.19,0,0,1,18.09,18.27v14.45a8.65,8.65,0,0,0,8.6,8.7h14.13a8.66,8.66,0,0,0,8.61-8.7V253.64A8.65,8.65,0,0,0,213.15,245Z" transform="translate(-110.85 -162.11)"/><path class="cls-3" d="M210.74,164H196.61a8.65,8.65,0,0,0-8.6,8.7V187a8.65,8.65,0,0,0,8.6,8.7h14.13a8.66,8.66,0,0,0,8.61-8.7V172.72A8.66,8.66,0,0,0,210.74,164Z" transform="translate(-110.85 -162.11)"/><path class="cls-4" d="M133.59,246.86H119.45a8.65,8.65,0,0,0-8.6,8.7v14.28a8.64,8.64,0,0,0,8.6,8.69h14.14a8.64,8.64,0,0,0,8.6-8.69V255.56A8.65,8.65,0,0,0,133.59,246.86Z" transform="translate(-110.85 -162.11)"/><path class="cls-5" d="M172.16,246.86H160.28a18.19,18.19,0,0,1-18.09-18.27V214.14a8.65,8.65,0,0,0-8.6-8.7H119.46a8.66,8.66,0,0,0-8.61,8.7v14.28a8.65,8.65,0,0,0,8.61,8.69h11.88a18.19,18.19,0,0,1,18.09,18.28v14.44a8.65,8.65,0,0,0,8.6,8.7h14.13a8.66,8.66,0,0,0,8.61-8.7V255.56A8.66,8.66,0,0,0,172.16,246.86Z" transform="translate(-110.85 -162.11)"/><path class="cls-6" d="M210.74,205.44H198.86a18.19,18.19,0,0,1-18.09-18.27V172.72a8.66,8.66,0,0,0-8.61-8.7H158a8.65,8.65,0,0,0-8.6,8.7V187a8.65,8.65,0,0,0,8.6,8.7h11.89A18.19,18.19,0,0,1,188,214v14.45a8.64,8.64,0,0,0,8.6,8.69h14.13a8.65,8.65,0,0,0,8.61-8.69V214.14A8.66,8.66,0,0,0,210.74,205.44Z" transform="translate(-110.85 -162.11)"/><path class="cls-7" d="M210.74,246.86H198.86a18.19,18.19,0,0,1-18.09-18.27V214.14a8.66,8.66,0,0,0-8.61-8.7H160.28a18.19,18.19,0,0,1-18.09-18.27V172.72a8.65,8.65,0,0,0-8.6-8.7H119.46a8.66,8.66,0,0,0-8.61,8.7V187a8.66,8.66,0,0,0,8.61,8.7h11.88A18.18,18.18,0,0,1,149.43,214v14.45a8.82,8.82,0,0,0,.67,3.38,8.69,8.69,0,0,0,1.85,2.76,8.51,8.51,0,0,0,6.08,2.55h11.89A18.2,18.2,0,0,1,188,255.39v14.44a8.65,8.65,0,0,0,8.6,8.7h14.13a8.66,8.66,0,0,0,8.61-8.7V255.56A8.66,8.66,0,0,0,210.74,246.86Z" transform="translate(-110.85 -162.11)"/><g id="ะบัะบ"><path class="cls-8" d="M136.24,175.92V171h-9.77v7.4H124V171h-7.32v17.27H124v-4.94h4.88v4.94h7.33v-4.94c0-2.72-2.45-5.92-4.89-5.92h0v-1.48Z" transform="translate(-110.85 -162.11)"/><path class="cls-8" d="M213.37,258.8v-4.93h-9.76v7.4h-2.44v-7.4h-7.33v17.26h7.33V266.2h4.88v4.93h7.32V266.2c0-2.73-2.44-5.92-4.88-5.92V258.8Z" transform="translate(-110.85 -162.11)"/><path class="cls-8" d="M168.46,223.28v3H162.6v-9.87h5.86v2h6.83v-.75a5.14,5.14,0,0,0-5.12-5.17h-9.29a5.15,5.15,0,0,0-5.12,5.17v6.92a5.15,5.15,0,0,0,5.12,5.17h9.29a5.14,5.14,0,0,0,5.12-5.17v-1.24Z" transform="translate(-110.85 -162.11)"/></g><polygon class="cls-9" points="175.18 0.99 129.86 0.99 129.86 13.71 132.38 13.71 132.38 84.94 155.04 84.94 155.04 18.79 175.18 18.79 175.18 84.94 197.84 84.94 197.84 13.71 197.84 0.99 175.18 0.99"/><path class="cls-9" d="M442.67,163.1H403.81a14.63,14.63,0,0,0-14.56,14.71v69.24h22.66V231.78H399.32V208.89h-2.51V198.71h15.1v-12.4a5.39,5.39,0,0,1,5.35-5.41h14.47a5.39,5.39,0,0,1,5.36,5.41v14.62a5.38,5.38,0,0,1-5.36,5.41H404.36v17.81h38.31a14.63,14.63,0,0,0,14.56-14.71V177.81A14.63,14.63,0,0,0,442.67,163.1Z" transform="translate(-110.85 -162.11)"/><path class="cls-9" d="M739.75,163.1H700.89a14.63,14.63,0,0,0-14.56,14.71v69.24H709V231.78H696.4V208.89h-2.51V198.71H709v-12.4a5.39,5.39,0,0,1,5.35-5.41h14.47a5.39,5.39,0,0,1,5.36,5.41v14.62a5.38,5.38,0,0,1-5.36,5.41H701.44v17.81h38.31a14.63,14.63,0,0,0,14.56-14.71V177.81A14.63,14.63,0,0,0,739.75,163.1Z" transform="translate(-110.85 -162.11)"/><path class="cls-9" d="M381.7,178.84v-2.33a13.14,13.14,0,0,0-12.87-13.41H326.59a13.14,13.14,0,0,0-12.87,13.41v7.57h2.52v63H338.9V220.81H326.31v2.63h-2.52V186.71h10.07v-2.63h.08a2.92,2.92,0,0,1,2.83-2.62h19.36a2.92,2.92,0,0,1,2.83,2.62h2.6v10.5H328.83v18.36h32.73v23.61h2.52v10.5h20.14V178.84Z" transform="translate(-110.85 -162.11)"/><polygon class="cls-9" points="353.93 0.99 353.93 16.25 353.93 18.79 353.93 21.34 366.52 21.34 366.52 18.79 376.59 18.79 376.59 84.94 399.25 84.94 399.25 18.79 421.91 18.79 421.91 0.99 353.93 0.99"/><polygon class="cls-9" points="472.26 0.99 472.26 34.06 447.08 34.06 447.08 0.99 426.94 0.99 426.94 84.94 447.08 84.94 447.08 49.32 472.26 49.32 472.26 84.94 492.4 84.94 492.4 0.99 472.26 0.99"/><path class="cls-9" d="M642.92,180.9H681.3V163.1H626.52a13.27,13.27,0,0,0-13.2,13.33v57.28a13.27,13.27,0,0,0,13.2,13.34H681.3V229.24H642.92a9.5,9.5,0,0,1-9.27-7.63H620.87V188.54h12.78A9.5,9.5,0,0,1,642.92,180.9Z" transform="translate(-110.85 -162.11)"/><rect class="cls-9" x="517.58" y="34.06" width="52.87" height="17.81"/></svg>