<svg xmlns="http://www.w3.org/2000/svg" viewBox="0 0 12.6 12.72"><defs><style>.cls-1{fill:#fff;}</style></defs><g id="Layer_2" data-name="Layer 2"><g id="Layer_1-2" data-name="Layer 1"><path class="cls-1" d="M.75,2.43.6,2.62A2.29,2.29,0,0,0,.06,4.77a9.88,9.88,0,0,0,8.77,7.94h.28a2.55,2.55,0,0,0,1.34-.35,2.28,2.28,0,0,0,.48-.39l.37-.41a2,2,0,0,0-.14-2.78l-.62-.57a2,2,0,0,0-2.78.14l-.38.41A1.9,1.9,0,0,0,7,9.31,6.9,6.9,0,0,1,3.58,6.14a2,2,0,0,0,.72-.5l.37-.41a2,2,0,0,0,.5-1.42,1.93,1.93,0,0,0-.64-1.36L3.9,1.88a2,2,0,0,0-1.32-.51A2,2,0,0,0,1.12,2Zm.75-.07a1.45,1.45,0,0,1,2.06-.1l.63.56a1.49,1.49,0,0,1,.48,1,1.41,1.41,0,0,1-.38,1l-.37.41h0a1.5,1.5,0,0,1-.66.42l-.11,0A.26.26,0,0,0,3,5.9a.26.26,0,0,0,0,.21l.06.1A7.44,7.44,0,0,0,7,9.84l.1,0a.27.27,0,0,0,.2,0,.26.26,0,0,0,.14-.15l0-.1a1.32,1.32,0,0,1,.3-.51l.37-.41a1.45,1.45,0,0,1,1.09-.48,1.48,1.48,0,0,1,1,.37l.63.57a1.48,1.48,0,0,1,.1,2.07l-.37.41a1.76,1.76,0,0,1-.37.29,2.1,2.1,0,0,1-1.32.27A9.36,9.36,0,0,1,.55,4.68,1.85,1.85,0,0,1,1,3S1,3,1,3H1s0,0,0,0l.11-.15Z"/><path class="cls-1" d="M12.6,6a6,6,0,0,0-6-6,.53.53,0,0,0-.53.53.52.52,0,0,0,.53.52,5,5,0,0,1,5,5,.53.53,0,0,0,.53.52A.52.52,0,0,0,12.6,6Zm-.52.27A.27.27,0,0,1,11.81,6,5.21,5.21,0,0,0,6.6.8.27.27,0,0,1,6.33.53.28.28,0,0,1,6.6.25,5.76,5.76,0,0,1,12.35,6,.27.27,0,0,1,12.08,6.28Z"/><path class="cls-1" d="M6.54,2A.52.52,0,0,0,6,2.48.53.53,0,0,0,6.54,3,3.07,3.07,0,0,1,9.6,6.07a.52.52,0,0,0,.52.53.53.53,0,0,0,.53-.53A4.12,4.12,0,0,0,6.54,2Zm3.58,4.38a.27.27,0,0,1-.27-.27A3.32,3.32,0,0,0,6.54,2.75a.27.27,0,1,1,0-.54A3.87,3.87,0,0,1,10.4,6.07.28.28,0,0,1,10.12,6.34Z"/></g></g></svg>